<?xml version="1.0" encoding="UTF-8" standalone="no"?>
<!-- Created by diasvg.py -->
<svg width="10.450cm" height="10.100cm" viewBox="0.600 0.950 11.050 11.050"
 xmlns="http://www.w3.org/2000/svg"
 xmlns:xlink="http://www.w3.org/1999/xlink">
<rect x="6.000" y="1.000" width="5.000" height="2.000" fill="#000000" stroke="none" stroke-width="0"/>
<rect x="6.000" y="1.000" width="5.000" height="2.000" fill="none" stroke="#FFFFFF" stroke-width="0.100" />
<rect x="6.000" y="3.000" width="5.000" height="2.000" fill="#000000" stroke="none" stroke-width="0"/>
<rect x="6.000" y="3.000" width="5.000" height="2.000" fill="none" stroke="#FFFFFF" stroke-width="0.100" />
<rect x="6.000" y="5.000" width="5.000" height="2.000" fill="#000000" stroke="none" stroke-width="0"/>
<rect x="6.000" y="5.000" width="5.000" height="2.000" fill="none" stroke="#FFFFFF" stroke-width="0.100" />
<rect x="6.000" y="7.000" width="5.000" height="2.000" fill="#000000" stroke="none" stroke-width="0"/>
<rect x="6.000" y="7.000" width="5.000" height="2.000" fill="none" stroke="#FFFFFF" stroke-width="0.100" />
<rect x="6.000" y="9.000" width="5.000" height="2.000" fill="#000000" stroke="none" stroke-width="0"/>
<rect x="6.000" y="9.000" width="5.000" height="2.000" fill="none" stroke="#FFFFFF" stroke-width="0.100" />
<text x="0.600" y="6.221"  fill="#FFFFFF" text-anchor="start" font-size="0.80" font-family="sans" font-style="normal" font-weight="400">
birthYear</text>
<line x1="3.600" y1="6.000" x2="5.450" y2="6.000" stroke="#FFFFFF" stroke-width="0.100" />
<polygon fill="#FFFFFF" stroke="none" stroke-width="0.100" points="5.450,6.250 5.950,6.000 5.450,5.750 "/>
<polygon fill="none" stroke="#FFFFFF" stroke-width="0.100"  points="5.450,6.250 5.950,6.000 5.450,5.750 "/>
</svg>